<svg xmlns="http://www.w3.org/2000/svg" viewBox="0 0 512 512" fill="currentColor">
  <path d="m 436.31223,75.687771 a 255,255 0 0 0 -360.624459,0 255,255 0 0 0 0,360.624459 255,255 0 0 0 360.624459,0 255,255 0 0 0 0,-360.624459 z m -35.35534,35.355339 a 205,205 0 0 1 0,289.91378 205,205 0 0 1 -289.91378,0 205,205 0 0 1 0,-289.91378 205,205 0 0 1 289.91378,0 z" />
  <path d="M 357.50435,138.8592 A 155,155 0 0 0 256,100.99999 155,155 0 0 0 100.99999,256 155,155 0 0 0 256,411.00001 155,155 0 0 0 411.00001,256 155,155 0 0 0 357.50435,138.8592 Z m -9.58047,25.21692 a 20,20 0 0 1 0,28.28427 20,20 0 0 1 -28.28427,0 20,20 0 0 1 0,-28.28427 20,20 0 0 1 28.28427,0 z m -45.96194,45.96194 a 65,65 0 0 1 0,91.92388 65,65 0 0 1 -91.92388,0 65,65 0 0 1 0,-91.92388 65,65 0 0 1 91.92388,0 z" />
</svg>
