<svg xmlns="http://www.w3.org/2000/svg" viewBox="0 0 512 512" fill="currentColor">
  <path transform="matrix(1,0,0,1,-35.7209,-273.86)" d="M246.721,404.86L246.721,454.86L161.721,454.86C120.327,454.86 86.721,488.467 86.721,529.86C86.721,571.254 120.327,604.86 161.721,604.86L246.721,604.86L246.721,654.86L161.721,654.86C92.732,654.86 36.721,598.85 36.721,529.86C36.721,460.871 92.732,404.86 161.721,404.86L246.721,404.86ZM336.721,404.86L421.721,404.86C490.71,404.86 546.721,460.871 546.721,529.86C546.721,598.85 490.71,654.86 421.721,654.86L336.721,654.86L336.721,604.86L421.721,604.86C463.115,604.86 496.721,571.254 496.721,529.86C496.721,488.467 463.115,454.86 421.721,454.86L336.721,454.86L336.721,404.86ZM401.721,504.86L181.721,504.86L181.721,554.86L401.721,554.86L401.721,504.86Z" />
</svg>