<svg xmlns="http://www.w3.org/2000/svg" viewBox="0 0 512 512" fill="currentColor">
  <path fill-rule="evenodd" transform="matrix(1.03745,0,0,1.03745,-9.58804,-9.58804)" d="M320.469,377.038C242.829,428.438 137.111,419.954 68.745,351.588C-9.307,273.535 -9.307,146.798 68.745,68.745C146.798,-9.307 273.535,-9.307 351.588,68.745C419.954,137.111 428.438,242.829 377.038,320.469L490.086,433.518C505.697,449.128 505.697,474.476 490.086,490.086C474.476,505.697 449.128,505.697 433.518,490.086C433.518,490.086 320.469,377.038 320.469,377.038ZM295.019,125.314C341.851,172.145 341.851,248.188 295.019,295.019C248.188,341.851 172.145,341.851 125.314,295.019C78.482,248.188 78.482,172.145 125.314,125.314C172.145,78.482 248.188,78.482 295.019,125.314Z"/>
</svg>