<svg xmlns="http://www.w3.org/2000/svg" viewBox="0 0 512 512" fill="currentColor">
  <path d="M 476.932,23.47689 154,138.78789 v 178.5 l 19.074,6.8085 -28.7385,57.477 a 50.9745,50.9745 0 0 0 29.478,71.196 l 104.142,34.7055 a 51.3825,51.3825 0 0 0 61.7355,-25.5765 l 33.2265,-66.453 104.0145,37.1535 A 25.5,25.5 0 0 0 511,408.60339 V 47.472391 A 25.5,25.5 0 0 0 476.932,23.47689 Z m -182.8605,415.6245 -104.1165,-34.7055 31.4925,-63.0105 103.071,36.822 z M 52,317.28789 h 51 v -178.5 H 52 c -28.1265,0 -51,22.8735 -51,51 v 76.5 c 0,28.1265 22.8735,51 51,51 z" />
</svg>
