<svg xmlns="http://www.w3.org/2000/svg" viewBox="0 0 512 512" fill="currentColor">
  <path d="M 256,1 C 203.20703,1 160.375,43.832031 160.375,96.625 V 256 c 0,52.79297 42.83203,95.625 95.625,95.625 52.79297,0 95.625,-42.83203 95.625,-95.625 V 96.625 C 351.625,43.832031 308.79297,1 256,1 Z M 128.5,216.15625 C 128.5,202.9082 117.8418,192.25 104.59375,192.25 91.345703,192.25 80.6875,202.9082 80.6875,216.15625 V 256 c 0,88.75195 65.94141,162.06445 151.40625,173.71875 v 33.46875 h -47.8125 c -13.24805,0 -23.90625,10.6582 -23.90625,23.90625 0,13.24805 10.6582,23.90625 23.90625,23.90625 h 143.4375 c 13.24805,0 23.90625,-10.6582 23.90625,-23.90625 0,-13.24805 -10.6582,-23.90625 -23.90625,-23.90625 h -47.8125 V 429.71875 C 365.37109,418.06445 431.3125,344.75195 431.3125,256 V 216.15625 C 431.3125,202.9082 420.6543,192.25 407.40625,192.25 394.1582,192.25 383.5,202.9082 383.5,216.15625 V 256 c 0,70.42383 -57.07617,127.5 -127.5,127.5 -70.42383,0 -127.5,-57.07617 -127.5,-127.5 z" />
</svg>
