<svg xmlns="http://www.w3.org/2000/svg" viewBox="0 0 512 512" fill="currentColor">
  <path d="m185.038 239.626c-11.32.001-11.323 4.264-22.642 4.265-20.838.001-2.1-46.236 22.642-46.236 24.743 0 43.481 46.237 22.642 46.236-11.318-.001-11.322-4.264-22.642-4.265zm-13.725-76.457c5.896-.03 9.279 5.874 9.243 12.141-.042 7.323-1.906 14.27-6.599 14.191-7.552-.128-11.963-7.641-12.195-12.818-.304-6.785 4.634-13.49 9.551-13.514zm27.451 0c4.917.024 9.855 6.729 9.551 13.514-.232 5.177-4.644 12.69-12.195 12.818-4.694.079-6.558-6.868-6.6-14.191-.036-6.267 3.347-12.171 9.244-12.141zm-52.839 20.42c5.616-1.535 10.352 3.231 11.919 9.217 1.831 6.995 1.829 14.097-2.668 15.221-7.234 1.807-13.361-4.23-14.906-9.109-2.024-6.392.973-14.049 5.655-15.329zm78.226 0c4.683 1.28 7.679 8.937 5.655 15.329-1.544 4.879-7.671 10.916-14.906 9.109-4.497-1.124-4.499-8.226-2.668-15.221 1.567-5.986 6.303-10.752 11.919-9.217z" transform="matrix(5.61545 0 0 5.61545 -783.073 -886.911)" />
</svg>
