<svg xmlns="http://www.w3.org/2000/svg" viewBox="0 0 512 512" fill="currentColor">
  <path  d="m 475.64798,17.531156 c -22.04154,-22.0415413 -57.67033,-22.0415413 -79.71187,0 l -30.29454,30.193892 98.53274,98.532732 30.29453,-30.29454 c 22.04155,-22.041537 22.04155,-57.67033 0,-79.711871 z M 174.51423,238.95303 c -6.13942,6.13943 -10.8698,13.6879 -13.58725,22.04154 l -29.7913,89.37392 c -2.91875,8.65559 -0.60388,18.21699 5.83748,24.759 6.44136,6.54201 16.00276,8.75622 24.75899,5.83748 l 89.37392,-29.79131 c 8.253,-2.81809 15.80147,-7.44782 22.04154,-13.58725 L 441.52889,169.10449 342.89551,70.471114 Z M 97.620454,60.104544 c -53.342543,0 -96.62045525,43.277916 -96.62045525,96.620456 V 414.37955 C 0.99999875,467.72209 44.277911,511 97.620454,511 H 355.275 c 53.34254,0 96.62046,-43.27791 96.62046,-96.62045 v -96.62046 c 0,-17.8144 -14.39243,-32.20682 -32.20682,-32.20682 -17.8144,0 -32.20682,14.39242 -32.20682,32.20682 v 96.62046 c 0,17.81439 -14.39242,32.20681 -32.20682,32.20681 H 97.620454 c -17.814396,0 -32.206818,-14.39242 -32.206818,-32.20681 V 156.725 c 0,-17.8144 14.392422,-32.20682 32.206818,-32.20682 h 96.620456 c 17.8144,0 32.20682,-14.39242 32.20682,-32.206818 0,-17.814396 -14.39242,-32.206818 -32.20682,-32.206818 z" />
</svg>
