<svg xmlns="http://www.w3.org/2000/svg" viewBox="0 0 512.00001 512.00001" fill="currentColor">
  <path fill-rule="evenodd" d="m 244.43542,507.28499 1.76331,1.00759 0.7053,0.40303 a 19.144273,19.144273 0 0 0 18.21225,0 l 0.70531,-0.37784 1.78848,-1.03278 a 427.5974,427.5974 0 0 0 28.81717,-18.69086 493.21692,493.21692 0 0 0 67.58432,-57.4832 c 48.96904,-50.12777 99.8273,-125.44537 99.8273,-222.35064 a 207.81612,207.81612 0 0 0 -415.632225,0 c 0,96.88008 50.883462,172.22287 99.827305,222.35064 a 493.21692,493.21692 0 0 0 67.55913,57.4832 427.5974,427.5974 0 0 0 28.84235,18.69086 z m 11.58733,-222.95521 a 75.5695,75.5695 0 1 0 0,-151.139 75.5695,75.5695 0 0 0 0,151.139 z" />
</svg>
