<svg xmlns="http://www.w3.org/2000/svg" viewBox="0 0 512 512" fill="currentColor">
  <path d="M 55.957031 73.128906 C 25.511034 73.128906 1 97.639949 1 128.08594 L 1 383.91406 C 1 414.36005 25.511034 438.87109 55.957031 438.87109 L 456.04297 438.87109 C 486.48896 438.87109 511 414.36005 511 383.91406 L 511 128.08594 C 511 97.639949 486.48896 73.128906 456.04297 73.128906 L 55.957031 73.128906 z M 81 123.12891 L 431 123.12891 C 447.61998 123.12891 461 136.50892 461 153.12891 C 461 169.74889 447.61998 183.12891 431 183.12891 L 81 183.12891 C 64.380017 183.12891 51 169.74889 51 153.12891 C 51 136.50892 64.380017 123.12891 81 123.12891 z " />
</svg>
