<svg xmlns="http://www.w3.org/2000/svg" viewBox="0 0 512 512" fill="currentColor">
  <path d="m 256,0.9973625 a 18.214586,18.214586 0 0 0 -8.64644,2.1835822 L 10.563828,130.68221 a 18.214586,18.214586 0 0 0 0,32.05842 L 247.35356,290.2419 a 18.214586,18.214586 0 0 0 17.29287,0 L 501.43617,162.74063 a 18.214586,18.214586 0 0 0 0,-32.05842 L 264.64643,3.1809447 A 18.214586,18.214586 0 0 0 256,0.9973625 Z M 468.13947,222.02351 281.91392,322.32375 a 54.643759,54.643759 0 0 1 -51.82785,0 L 43.860523,222.04695 10.589219,239.97068 a 18.214586,18.214586 0 0 0 0,32.05646 L 247.37895,399.53036 a 18.214586,18.214586 0 0 0 17.24209,0 L 501.41077,272.02714 a 18.214586,18.214586 0 0 0 0,-32.05646 z M 43.860523,331.31003 10.589219,349.2572 a 18.214586,18.214586 0 0 0 0,32.05842 L 247.37895,508.81688 c 5.36723,2.91434 11.87486,2.91434 17.24209,0 L 501.41077,381.31562 a 18.214586,18.214586 0 0 0 0,-32.05842 l -33.2713,-17.92178 -186.22555,100.30024 a 54.643759,54.643759 0 0 1 -51.82785,-0.0234 z" />
</svg>