<svg xmlns="http://www.w3.org/2000/svg" viewBox="0 0 100 100" fill="currentColor">
  <path d="M60.086,20.041C60.286,19.596 60.738,19.309 61.236,19.309C61.735,19.309 62.186,19.596 62.387,20.041L70.94,39.028L92.122,41.084C92.618,41.132 93.038,41.461 93.192,41.923C93.346,42.385 93.205,42.892 92.833,43.215L76.937,57.005L81.475,77.263C81.581,77.737 81.389,78.228 80.986,78.513C80.583,78.799 80.044,78.825 79.614,78.58L61.236,68.116L42.859,78.58C42.429,78.825 41.89,78.799 41.487,78.513C41.083,78.228 40.892,77.737 40.998,77.263L45.536,57.005L29.64,43.215C29.268,42.892 29.127,42.385 29.281,41.923C29.435,41.461 29.855,41.132 30.351,41.084L51.533,39.028L60.086,20.041Z" transform="matrix(1.56167,0,0,1.60332,-45.6313,-28.6077)" />
</svg>