<svg xmlns="http://www.w3.org/2000/svg" viewBox="0 0 512 512" fill="currentColor">
  <path d="m 302.125,1.0018918 c -0.34679,0.0091 -0.68589,0.061545 -1.03125,0.078125 -0.75029,0.0371 -1.49389,0.099772 -2.24023,0.171875 -0.85698,0.0816 -1.70895,0.1759895 -2.55469,0.3027344 -0.63175,0.09539 -1.2578,0.2136115 -1.88477,0.3339844 -0.9236,0.1765168 -1.84138,0.3663893 -2.74804,0.5957031 -0.56207,0.1423769 -1.11532,0.3061562 -1.67188,0.46875 -0.93495,0.2730117 -1.86248,0.5605592 -2.77539,0.8886719 -0.52335,0.1879568 -1.03584,0.3973688 -1.55273,0.6035156 -0.91553,0.3655136 -1.82196,0.7440279 -2.71094,1.1640625 -0.51172,0.2414878 -1.014,0.5038421 -1.51758,0.7636719 -0.85826,0.4432825 -1.70621,0.8990906 -2.53515,1.3925781 -0.5039,0.2998007 -0.99458,0.6186023 -1.48829,0.9375 -0.81346,0.5255085 -1.61626,1.0631557 -2.39648,1.6367193 -0.45283,0.333112 -0.89178,0.68511 -1.33398,1.035156 -0.79418,0.627885 -1.57235,1.271659 -2.32618,1.949219 -0.38078,0.342962 -0.75009,0.698237 -1.12109,1.054687 -0.78708,0.754401 -1.55129,1.531351 -2.28711,2.339844 -0.29625,0.326379 -0.58466,0.660219 -0.87305,0.996094 -0.76728,0.89135 -1.50239,1.807828 -2.20507,2.757812 -0.24028,0.325185 -0.47576,0.653605 -0.70899,0.986328 -0.68643,0.979123 -1.33425,1.986437 -1.94922,3.021485 -0.12279,0.20572 -0.26651,0.389452 -0.38672,0.597656 L 158.62891,203.82025 c -2.43751,4.10091 -4.27847,8.58839 -5.41406,13.36719 -0.0645,0.26784 -0.14526,0.53438 -0.20508,0.80273 -0.21962,1.00093 -0.37857,2.0213 -0.53516,3.04493 -0.0964,0.61857 -0.20953,1.23392 -0.28125,1.85351 -0.0865,0.76277 -0.12316,1.5391 -0.17383,2.3125 -0.0576,0.86159 -0.11802,1.72173 -0.1289,2.58203 -0.002,0.21004 -0.0332,0.41236 -0.0332,0.62305 v 234.49219 c 0,26.64781 21.45181,48.10156 48.09961,48.10156 h 238.9375 c 26.64784,0 48.10157,-21.45375 48.10157,-48.10156 0,-14.00471 -5.96441,-26.53547 -15.45508,-35.31055 15.6012,-7.93504 26.26562,-24.08486 26.26562,-42.85156 0,-14.00438 -5.96285,-26.53744 -15.45312,-35.3125 15.60083,-7.93516 26.26367,-24.08512 26.26367,-42.85156 1e-5,-16.15696 -7.91531,-30.36637 -20.06445,-39.08008 12.14972,-8.71365 20.06445,-22.92852 20.06445,-39.08594 1e-5,-26.6478 -21.45374,-48.09961 -48.10156,-48.09961 H 329.21875 L 350.88086,57.453064 c 0.0559,-0.317147 0.0696,-0.630559 0.11914,-0.947266 0.15581,-0.994156 0.2787,-1.988075 0.3711,-2.984375 0.0592,-0.629369 0.10807,-1.256434 0.14257,-1.882812 0.0471,-0.888537 0.0669,-1.773515 0.0645,-2.660156 -1.3e-4,-0.775648 -0.0117,-1.547528 -0.0488,-2.316407 -0.0353,-0.691405 -0.0932,-1.376412 -0.1582,-2.064453 -0.087,-0.947042 -0.19185,-1.888912 -0.33399,-2.822265 -0.0764,-0.494605 -0.16993,-0.984877 -0.26172,-1.476563 -0.20105,-1.089114 -0.42693,-2.166726 -0.70117,-3.232422 -0.091,-0.351294 -0.19607,-0.697722 -0.29492,-1.046875 -0.32762,-1.162702 -0.68727,-2.310475 -1.09961,-3.439453 -0.0994,-0.271376 -0.20822,-0.537002 -0.3125,-0.80664 -0.46323,-1.200444 -0.96539,-2.379749 -1.52148,-3.535157 -0.0879,-0.182405 -0.18318,-0.361598 -0.27344,-0.542969 -0.60787,-1.223114 -1.25849,-2.419172 -1.9668,-3.583984 -0.0754,-0.123625 -0.15399,-0.244179 -0.23047,-0.367187 -0.75974,-1.224349 -1.57122,-2.413379 -2.4375,-3.564453 -0.0403,-0.05335 -0.0806,-0.105014 -0.12109,-0.158204 -4.78783,-6.306982 -11.13233,-11.4257503 -18.61133,-14.7656249 -0.0446,-0.02017 -0.0882,-0.040527 -0.13281,-0.060547 -1.25482,-0.5557594 -2.53971,-1.056073 -3.85547,-1.5078125 -0.38241,-0.1334659 -0.76431,-0.2634339 -1.14844,-0.3867188 -0.96259,-0.3036926 -1.93779,-0.5763898 -2.92969,-0.8222656 -0.71873,-0.1811908 -1.43787,-0.3472967 -2.16015,-0.4941406 -0.3766,-0.07551 -0.73489,-0.1887914 -1.11524,-0.2558594 -0.39077,-0.06891 -0.77788,-0.085354 -1.16797,-0.1445312 -0.88248,-0.1351649 -1.76427,-0.2448752 -2.64843,-0.3300782 -0.69883,-0.06742 -1.39274,-0.1212771 -2.08789,-0.1582031 -0.86665,-0.04532 -1.73087,-0.066223 -2.59571,-0.064453 -0.41164,2.87e-4 -0.82848,-0.0400768 -1.23828,-0.029297 z M 23.75,180.30658 c -11.283641,0 -20.3671878,9.08355 -20.3671878,20.36719 v 289.95898 c 0,11.28365 9.0835468,20.36719 20.3671878,20.36719 h 55.466797 c 11.283639,0 20.367191,-9.08354 20.367191,-20.36719 V 200.67377 c 0,-11.28364 -9.083552,-20.36719 -20.367191,-20.36719 z" />
</svg>
