<svg xmlns="http://www.w3.org/2000/svg" viewBox="0 0 512 512" fill="currentColor">
  <path d="M 363.53286,1.3697182 A 124.04141,124.04141 0 0 0 249.33906,133.10529 c 1.51606,24.064 -3.52823,49.83703 -22.05174,65.27329 L 27.992986,364.42997 A 75.086398,75.086398 0 1 0 133.7594,470.19638 L 299.80883,270.90204 c 15.43624,-18.52351 41.21123,-23.56778 65.27525,-22.05173 2.64621,0.19294 5.31855,0.27559 8.01987,0.27559 A 124.04141,124.04141 0 0 0 491.19155,86.989965 c -2.89431,-8.930972 -14.05819,-10.777063 -20.72886,-4.133961 l -74.20461,74.204616 a 12.5144,12.5144 0 0 1 -13.58892,3.03156 82.96992,82.96992 0 0 1 -44.59954,-44.54441 12.541965,12.541965 0 0 1 3.03157,-13.61648 l 74.25973,-74.204614 c 6.61553,-6.6431 4.79701,-17.8345671 -4.13397,-20.7288644 A 124.04141,124.04141 0 0 0 363.53286,1.3697182 Z M 29.050099,4.2103405 A 13.782379,13.782379 0 0 0 21.516447,8.072642 L 8.0102041,21.578885 A 13.782379,13.782379 0 0 0 5.4451793,37.484793 L 52.306585,131.2588 a 13.782379,13.782379 0 0 0 12.321173,7.60845 h 35.199705 l 61.029067,61.02908 39.96755,-33.29807 a 12.45927,12.45927 0 0 0 2.20674,-2.48235 L 138.8048,99.889888 V 64.717755 A 13.782379,13.782379 0 0 0 131.19634,52.341463 L 37.420388,5.482025 A 13.782379,13.782379 0 0 0 29.050099,4.2103405 Z M 387.27361,289.86707 c -4.65844,0.41349 -9.40094,0.60631 -14.16966,0.60631 -3.58339,0 -7.13929,-0.11018 -10.66758,-0.3307 -8.48993,-0.5513 -15.84979,0.19259 -21.41785,1.84649 -5.37513,1.59875 -7.99404,3.66711 -9.42741,5.40369 l -59.8696,71.86005 121.56012,121.5621 A 68.921666,68.921666 0 0 0 490.7506,393.34407 Z M 77.541467,387.65101 a 27.56476,27.56476 0 0 1 33.697683,26.86287 27.56476,27.56476 0 1 1 -55.12932,0 27.56476,27.56476 0 0 1 21.431637,-26.86287 z" />
</svg>
