<svg xmlns="http://www.w3.org/2000/svg" viewBox="0 0 512 512" fill="currentColor">
  <path d="M 167.54687,18.630859 160.375,32.875 H 64.75 c -17.630859,0 -31.875,14.244141 -31.875,31.875 0,17.630859 14.244141,31.875 31.875,31.875 h 382.5 c 17.63086,0 31.875,-14.244141 31.875,-31.875 0,-17.630859 -14.24414,-31.875 -31.875,-31.875 H 351.625 L 344.45312,18.630859 C 339.07422,7.7734375 328.01758,1 315.96484,1 H 196.03516 C 183.98242,1 172.92578,7.7734375 167.54687,18.630859 Z M 447.25,128.5 H 64.75 L 85.867187,466.17578 C 87.460938,491.37695 108.37891,511 133.58008,511 h 244.83984 c 25.20117,0 46.11914,-19.62305 47.71289,-44.82422 z" />
</svg>
