<svg xmlns="http://www.w3.org/2000/svg" viewBox="0 0 512 512" fill="currentColor">
  <path transform="translate(-7.7253524)" d="M 166.22535 43.572266 C 150.99037 43.572266 138.72535 55.837281 138.72535 71.072266 C 138.72535 86.30725 150.99037 98.572266 166.22535 98.572266 L 195.99293 98.572266 L 13.086681 415.37305 C 4.1262086 430.89304 9.408484 450.60203 24.928477 459.5625 L 26.360118 460.38672 C 41.880111 469.34721 61.589098 464.06687 70.549571 448.54688 L 238.84645 157.04883 L 238.84645 382.41016 C 238.84644 395.85086 249.66551 406.66992 263.10621 406.66992 L 264.34645 406.66992 C 277.78714 406.66992 288.60816 395.85087 288.60816 382.41016 L 288.60816 157.04883 L 456.90309 448.54688 C 465.86355 464.06687 485.57255 469.34721 501.09254 460.38672 L 502.52223 459.5625 C 518.04222 450.60204 523.32452 430.89304 514.36402 415.37305 L 331.45973 98.572266 L 361.22535 98.572266 C 376.46034 98.572266 388.72535 86.30725 388.72535 71.072266 C 388.72535 55.837281 376.46034 43.572266 361.22535 43.572266 L 166.22535 43.572266 z " />
</svg>
