<svg xmlns="http://www.w3.org/2000/svg" viewBox="0 0 512 512" fill="currentColor">
  <path d="m 275.23223,145.08372 a 92.422224,92.422224 0 1 1 -184.844443,0 92.422224,92.422224 0 0 1 184.844443,0 z m 88.72534,277.48849 c 4.06658,20.03714 -12.86518,36.74707 -33.272,36.74707 H 34.934453 c -20.443796,0 -37.3385779,-16.70993 -33.3459378,-36.74707 a 184.91839,184.91839 0 0 1 362.4060248,0 z m 114.67749,-0.22182 h -58.78053 a 94.492481,94.492481 0 0 0 -1.47876,-10.72097 239.41053,239.41053 0 0 0 -43.14269,-96.23002 110.98061,110.98061 0 0 1 134.30797,70.64755 c 6.6544,19.29776 -10.46219,36.30344 -30.90599,36.30344 z M 404.62335,274.47484 a 73.937781,73.937781 0 1 0 0,-147.87556 73.937781,73.937781 0 0 0 0,147.87556 z" />
</svg>
