<svg xmlns="http://www.w3.org/2000/svg" viewBox="0 0 512 512" fill="currentColor">
  <path fill-rule="evenodd" d="M256,510C115.814,510 2,396.186 2,256C2,115.814 115.814,2 256,2C396.186,2 510,115.814 510,256C510,396.186 396.186,510 256,510ZM256,460C143.409,460 52,368.591 52,256C52,143.409 143.409,52 256,52C368.591,52 460,143.409 460,256C460,368.591 368.591,460 256,460ZM256,386C236.683,386 221,370.317 221,351C221,331.683 236.683,316 256,316C275.317,316 291,331.683 291,351C291,370.317 275.317,386 256,386ZM284,141L284,261C284,269.279 277.279,276 269,276L243,276C234.721,276 228,269.279 228,261L228,141C228,132.721 234.721,126 243,126L269,126C277.279,126 284,132.721 284,141Z" />
</svg>